<?xml version="1.0" encoding="UTF-8"?>
<svg id="Livello_1" data-name="Livello 1" xmlns="http://www.w3.org/2000/svg" viewBox="0 0 1080.76 1567.07">
  <defs>
    <style>
      .cls-1 {
        stroke: #fff;
      }

      .cls-1, .cls-2 {
        fill: #fff;
      }

      .cls-1, .cls-3, .cls-4 {
        stroke-width: 4px;
      }

      .cls-1, .cls-3, .cls-4, .cls-5 {
        stroke-miterlimit: 10;
      }

      .cls-6 {
        fill: #1d1d1b;
      }

      .cls-7, .cls-4, .cls-5 {
        fill: #5560a9;
      }

      .cls-3 {
        fill: none;
        stroke: #1d1d1b;
      }

      .cls-4, .cls-5 {
        stroke: #5560a9;
      }

      .cls-5 {
        stroke-width: 11px;
      }
    </style>
  </defs>
  <rect class="cls-7" y="854.99" width="683.51" height="349.23"/>
  <rect class="cls-7" x="384.15" y="88.36" width="343.22" height="314.31"/>
  <path d="M1000.72,370.96h0c-61.02,0-88.33-34.11-88.33-67.92,0-17.48,7.45-34.69,20.45-47.24,13.88-13.4,33.29-20.78,54.66-20.78h10.08l-37.56-81.76c-.56-1.22-2.29-1.21-2.84,0l-98.88,217.69h-33.03l106.1-233.58c4.79-10.54,15.29-17.3,26.86-17.3h.9c11.54,0,22.03,6.73,26.83,17.23l44.69,97.71h32.8l17.31,30.07h-36.35l4,10.82-17.21,32.6-19.86-43.42h-23.84c-17.35,0-27.94,6.71-33.77,12.34-7.16,6.91-11.26,16.24-11.26,25.6,0,27.93,31.38,37.85,58.26,37.85l14.86-.56-14.86,30.63Z"/>
  <path class="cls-2" d="M603.47,370.96h0c-61.02,0-88.33-34.11-88.33-67.92,0-17.48,7.45-34.69,20.45-47.24,13.88-13.4,33.29-20.78,54.66-20.78h10.08l-37.56-81.76c-.56-1.22-2.29-1.21-2.84,0l-98.88,217.69h-33.03l106.1-233.58c4.79-10.54,15.29-17.3,26.86-17.3h.9c11.54,0,22.03,6.73,26.83,17.23l44.69,97.71h32.8l17.31,30.07h-36.35l4,10.82-17.21,32.6-19.86-43.42h-23.84c-17.35,0-27.94,6.71-33.77,12.34-7.16,6.91-11.26,16.24-11.26,25.6,0,27.93,31.38,37.85,58.26,37.85l14.86-.56-14.86,30.63Z"/>
  <path class="cls-7" d="M219.32,370.96h0c-61.02,0-88.33-34.11-88.33-67.92,0-17.48,7.45-34.69,20.45-47.24,13.88-13.4,33.29-20.78,54.66-20.78h10.08l-37.56-81.76c-.56-1.22-2.29-1.21-2.84,0l-98.88,217.69h-33.03l106.1-233.58c4.79-10.54,15.29-17.3,26.86-17.3h.9c11.54,0,22.03,6.73,26.83,17.23l44.69,97.71h32.8l17.31,30.07h-36.35l4,10.82-17.21,32.6-19.86-43.42h-23.84c-17.35,0-27.94,6.71-33.77,12.34-7.16,6.91-11.26,16.24-11.26,25.6,0,27.93,31.38,37.85,58.26,37.85l14.86-.56-14.86,30.63Z"/>
  <g>
    <path class="cls-6" d="M227.61,1565.12h0c-65.94,0-95.46-36.87-95.46-73.4,0-18.89,8.06-37.5,22.1-51.05,15-14.48,35.98-22.46,59.07-22.46h10.9l-40.59-88.37c-.6-1.31-2.47-1.31-3.07,0l-106.87,235.27h-35.7l114.67-252.44c5.17-11.39,16.52-18.7,29.03-18.7h.97c12.48,0,23.81,7.28,29,18.62l48.3,105.6h35.45l18.71,32.5h-39.29l4.32,11.7-18.6,35.24-21.46-46.93h-25.76c-18.75,0-30.19,7.25-36.5,13.34-7.74,7.47-12.17,17.55-12.17,27.67,0,30.19,33.92,40.9,62.96,40.9l16.06-.61-16.06,33.11Z"/>
    <g>
      <path class="cls-6" d="M351.37,1539.41v-64.73h-23.36v-4.18h68v4.18h-39.81v64.08c0,17.49,5.87,24.01,20.23,24.01,6,0,11.75-1.17,17.49-3.65h.13v4.31c-6.26,2.48-12.14,3.65-18.53,3.65-17.49,0-24.14-8.74-24.14-27.67Z"/>
      <path class="cls-6" d="M440.89,1562.9c8.48,0,16.44-1.7,24.67-5.61h.13v4.31c-7.7,3.65-16.31,5.48-25.32,5.48-20.1,0-29.63-9.4-29.63-30.8v-65.78h4.83v65.51c0,18.92,7.83,26.88,25.32,26.88Z"/>
      <path class="cls-6" d="M474.69,1540.97c0-15.79,9.92-25.84,35.63-27.67l31.58-2.22v-5.35c0-19.32-6.13-33.02-28.32-33.02-19.71,0-29.5,10.18-30.54,22.06h-4.57c1.04-13.57,12.27-26.23,35.5-26.23s32.76,12.66,32.76,37.46v46.72c0,7.18,2.22,9.92,8.35,9.92,2.09,0,4.04-.13,5.87-.52h.13v4.05c-2.35.52-4.7.78-7.18.78-8.22,0-11.75-3.79-11.75-12.92v-13.18h-.26c-6.26,17.49-19.97,26.23-37.46,26.23s-29.76-8.74-29.76-26.1ZM505.62,1562.9c21.14,0,36.28-15.79,36.28-38.5v-9.4l-32.63,2.48c-18.4,1.31-29.76,7.96-29.76,23.23,0,11.09,6,22.19,26.1,22.19Z"/>
      <path class="cls-6" d="M565.39,1535.49h4.83c1.31,17.1,11.62,27.41,33.41,27.41,19.05,0,29.5-8.48,29.5-22.58,0-10.7-6.13-17.88-18.53-19.84l-26.1-3.92c-14.09-2.22-21.14-11.49-21.14-23.23,0-15.4,12.14-24.8,32.89-24.8s32.5,9.92,34.85,26.49h-4.83c-1.96-13.96-11.62-22.32-30.02-22.32s-28.06,7.7-28.06,20.49c0,9.53,5.74,17.23,18.66,19.05l25.71,3.92c13.83,2.09,21.53,10.96,21.4,24.14,0,16.71-12.53,26.75-34.45,26.75-25.32,0-37.06-13.05-38.11-31.58Z"/>
    </g>
    <g>
      <polygon class="cls-6" points="335.08 1566.43 290.28 1476.19 245.67 1566.31 240.01 1566.18 287.98 1469.27 292.58 1469.27 340.84 1566.5 335.08 1566.43"/>
      <line class="cls-3" x1="258.1" y1="1535.19" x2="323.26" y2="1535.19"/>
    </g>
  </g>
  <g>
    <path class="cls-2" d="M227.61,1149.65h0c-65.94,0-95.46-36.87-95.46-73.4,0-18.89,8.06-37.5,22.1-51.05,15-14.48,35.98-22.46,59.07-22.46h10.9l-40.59-88.37c-.6-1.31-2.47-1.31-3.07,0l-106.87,235.27h-35.7l114.67-252.44c5.17-11.39,16.52-18.7,29.03-18.7h.97c12.48,0,23.81,7.28,29,18.62l48.3,105.6h35.45l18.71,32.5h-39.29l4.32,11.7-18.6,35.24-21.46-46.93h-25.76c-18.75,0-30.19,7.25-36.5,13.34-7.74,7.47-12.17,17.55-12.17,27.67,0,30.19,33.92,40.9,62.96,40.9l16.06-.61-16.06,33.11Z"/>
    <g>
      <path class="cls-2" d="M351.37,1123.94v-64.73h-23.36v-4.18h68v4.18h-39.81v64.08c0,17.49,5.87,24.01,20.23,24.01,6,0,11.75-1.17,17.49-3.65h.13v4.31c-6.26,2.48-12.14,3.65-18.53,3.65-17.49,0-24.14-8.74-24.14-27.67Z"/>
      <path class="cls-2" d="M440.89,1147.43c8.48,0,16.44-1.7,24.67-5.61h.13v4.31c-7.7,3.65-16.31,5.48-25.32,5.48-20.1,0-29.63-9.4-29.63-30.8v-65.78h4.83v65.51c0,18.92,7.83,26.88,25.32,26.88Z"/>
      <path class="cls-2" d="M474.69,1125.5c0-15.79,9.92-25.84,35.63-27.67l31.58-2.22v-5.35c0-19.32-6.13-33.02-28.32-33.02-19.71,0-29.5,10.18-30.54,22.06h-4.57c1.04-13.57,12.27-26.23,35.5-26.23s32.76,12.66,32.76,37.46v46.72c0,7.18,2.22,9.92,8.35,9.92,2.09,0,4.04-.13,5.87-.52h.13v4.05c-2.35.52-4.7.78-7.18.78-8.22,0-11.75-3.79-11.75-12.92v-13.18h-.26c-6.26,17.49-19.97,26.23-37.46,26.23s-29.76-8.74-29.76-26.1ZM505.62,1147.43c21.14,0,36.28-15.79,36.28-38.5v-9.4l-32.63,2.48c-18.4,1.31-29.76,7.96-29.76,23.23,0,11.09,6,22.19,26.1,22.19Z"/>
      <path class="cls-2" d="M565.39,1120.02h4.83c1.31,17.1,11.62,27.41,33.41,27.41,19.05,0,29.5-8.48,29.5-22.58,0-10.7-6.13-17.88-18.53-19.84l-26.1-3.92c-14.09-2.22-21.14-11.49-21.14-23.23,0-15.4,12.14-24.8,32.89-24.8s32.5,9.92,34.85,26.49h-4.83c-1.96-13.96-11.62-22.32-30.02-22.32s-28.06,7.7-28.06,20.49c0,9.53,5.74,17.23,18.66,19.05l25.71,3.92c13.83,2.09,21.53,10.96,21.4,24.14,0,16.71-12.53,26.75-34.45,26.75-25.32,0-37.06-13.05-38.11-31.58Z"/>
    </g>
    <g>
      <polygon class="cls-2" points="335.08 1150.96 290.28 1060.72 245.67 1150.84 240.01 1150.71 287.98 1053.8 292.58 1053.8 340.84 1151.03 335.08 1150.96"/>
      <line class="cls-1" x1="258.1" y1="1119.72" x2="323.26" y2="1119.72"/>
    </g>
  </g>
  <g>
    <path class="cls-7" d="M227.61,751.17h0c-65.94,0-95.46-36.87-95.46-73.4,0-18.89,8.06-37.5,22.1-51.05,15-14.48,35.98-22.46,59.07-22.46h10.9l-40.59-88.37c-.6-1.31-2.47-1.31-3.07,0l-106.87,235.27h-35.7l114.67-252.44c5.17-11.39,16.52-18.7,29.03-18.7h.97c12.48,0,23.81,7.28,29,18.62l48.3,105.6h35.45l18.71,32.5h-39.29l4.32,11.7-18.6,35.24-21.46-46.93h-25.76c-18.75,0-30.19,7.25-36.5,13.34-7.74,7.47-12.17,17.55-12.17,27.67,0,30.19,33.92,40.9,62.96,40.9l16.06-.61-16.06,33.11Z"/>
    <g>
      <path class="cls-7" d="M351.37,725.46v-64.73h-23.36v-4.18h68v4.18h-39.81v64.08c0,17.49,5.87,24.01,20.23,24.01,6,0,11.75-1.17,17.49-3.65h.13v4.31c-6.26,2.48-12.14,3.65-18.53,3.65-17.49,0-24.14-8.74-24.14-27.67Z"/>
      <path class="cls-7" d="M440.89,748.95c8.48,0,16.44-1.7,24.67-5.61h.13v4.31c-7.7,3.65-16.31,5.48-25.32,5.48-20.1,0-29.63-9.4-29.63-30.8v-65.78h4.83v65.51c0,18.92,7.83,26.88,25.32,26.88Z"/>
      <path class="cls-7" d="M474.69,727.02c0-15.79,9.92-25.84,35.63-27.67l31.58-2.22v-5.35c0-19.32-6.13-33.02-28.32-33.02-19.71,0-29.5,10.18-30.54,22.06h-4.57c1.04-13.57,12.27-26.23,35.5-26.23s32.76,12.66,32.76,37.46v46.72c0,7.18,2.22,9.92,8.35,9.92,2.09,0,4.04-.13,5.87-.52h.13v4.05c-2.35.52-4.7.78-7.18.78-8.22,0-11.75-3.79-11.75-12.92v-13.18h-.26c-6.26,17.49-19.97,26.23-37.46,26.23s-29.76-8.74-29.76-26.1ZM505.62,748.95c21.14,0,36.28-15.79,36.28-38.5v-9.4l-32.63,2.48c-18.4,1.31-29.76,7.96-29.76,23.23,0,11.09,6,22.19,26.1,22.19Z"/>
      <path class="cls-7" d="M565.39,721.54h4.83c1.31,17.1,11.62,27.41,33.41,27.41,19.05,0,29.5-8.48,29.5-22.58,0-10.7-6.13-17.88-18.53-19.84l-26.1-3.92c-14.09-2.22-21.14-11.49-21.14-23.23,0-15.4,12.14-24.8,32.89-24.8s32.5,9.92,34.85,26.49h-4.83c-1.96-13.96-11.62-22.32-30.02-22.32s-28.06,7.7-28.06,20.49c0,9.53,5.74,17.23,18.66,19.05l25.71,3.92c13.83,2.09,21.53,10.96,21.4,24.14,0,16.71-12.53,26.75-34.45,26.75-25.32,0-37.06-13.05-38.11-31.58Z"/>
    </g>
    <g>
      <polygon class="cls-7" points="335.08 752.48 290.28 662.24 245.67 752.36 240.01 752.23 287.98 655.32 292.58 655.32 340.84 752.55 335.08 752.48"/>
      <line class="cls-4" x1="258.1" y1="721.24" x2="323.26" y2="721.24"/>
    </g>
  </g>
  <g>
    <line class="cls-5" x1="186.99" y1="6.69" x2="217.12" y2="6.69"/>
    <rect class="cls-5" x="190.2" y="5.5" width="22.74" height="2.37"/>
  </g>
</svg>